<mxfile host="Electron" agent="Mozilla/5.0 (Macintosh; Intel Mac OS X 10_15_7) AppleWebKit/537.36 (KHTML, like Gecko) draw.io/28.2.8 Chrome/140.0.7339.240 Electron/38.4.0 Safari/537.36" version="28.2.8">
  <diagram name="Page-1" id="BRtDY2tZAbp8LAEBQN3i">
    <mxGraphModel dx="1216" dy="505" grid="1" gridSize="10" guides="1" tooltips="1" connect="1" arrows="1" fold="1" page="0" pageScale="1" pageWidth="850" pageHeight="1100" math="0" shadow="0">
      <root>
        <mxCell id="0" />
        <mxCell id="1" parent="0" />
        <mxCell id="aM8AJcJWPtkYupKNC__z-2" value="" style="shape=table;startSize=0;container=1;collapsible=0;childLayout=tableLayout;" vertex="1" parent="1">
          <mxGeometry x="180" y="650" width="690" height="160" as="geometry" />
        </mxCell>
        <mxCell id="aM8AJcJWPtkYupKNC__z-3" value="" style="shape=tableRow;horizontal=0;startSize=0;swimlaneHead=0;swimlaneBody=0;strokeColor=inherit;top=0;left=0;bottom=0;right=0;collapsible=0;dropTarget=0;fillColor=none;points=[[0,0.5],[1,0.5]];portConstraint=eastwest;" vertex="1" parent="aM8AJcJWPtkYupKNC__z-2">
          <mxGeometry width="690" height="40" as="geometry" />
        </mxCell>
        <mxCell id="aM8AJcJWPtkYupKNC__z-4" value="Stackholder" style="shape=partialRectangle;html=1;whiteSpace=wrap;connectable=0;strokeColor=inherit;overflow=hidden;fillColor=none;top=0;left=0;bottom=0;right=0;pointerEvents=1;" vertex="1" parent="aM8AJcJWPtkYupKNC__z-3">
          <mxGeometry width="230" height="40" as="geometry">
            <mxRectangle width="230" height="40" as="alternateBounds" />
          </mxGeometry>
        </mxCell>
        <mxCell id="aM8AJcJWPtkYupKNC__z-5" value="Vai trò" style="shape=partialRectangle;html=1;whiteSpace=wrap;connectable=0;strokeColor=inherit;overflow=hidden;fillColor=none;top=0;left=0;bottom=0;right=0;pointerEvents=1;" vertex="1" parent="aM8AJcJWPtkYupKNC__z-3">
          <mxGeometry x="230" width="230" height="40" as="geometry">
            <mxRectangle width="230" height="40" as="alternateBounds" />
          </mxGeometry>
        </mxCell>
        <mxCell id="aM8AJcJWPtkYupKNC__z-6" value="Nguồn yêu cầu" style="shape=partialRectangle;html=1;whiteSpace=wrap;connectable=0;strokeColor=inherit;overflow=hidden;fillColor=none;top=0;left=0;bottom=0;right=0;pointerEvents=1;" vertex="1" parent="aM8AJcJWPtkYupKNC__z-3">
          <mxGeometry x="460" width="230" height="40" as="geometry">
            <mxRectangle width="230" height="40" as="alternateBounds" />
          </mxGeometry>
        </mxCell>
        <mxCell id="aM8AJcJWPtkYupKNC__z-7" value="" style="shape=tableRow;horizontal=0;startSize=0;swimlaneHead=0;swimlaneBody=0;strokeColor=inherit;top=0;left=0;bottom=0;right=0;collapsible=0;dropTarget=0;fillColor=none;points=[[0,0.5],[1,0.5]];portConstraint=eastwest;" vertex="1" parent="aM8AJcJWPtkYupKNC__z-2">
          <mxGeometry y="40" width="690" height="40" as="geometry" />
        </mxCell>
        <mxCell id="aM8AJcJWPtkYupKNC__z-8" value="Học viên" style="shape=partialRectangle;html=1;whiteSpace=wrap;connectable=0;strokeColor=inherit;overflow=hidden;fillColor=none;top=0;left=0;bottom=0;right=0;pointerEvents=1;" vertex="1" parent="aM8AJcJWPtkYupKNC__z-7">
          <mxGeometry width="230" height="40" as="geometry">
            <mxRectangle width="230" height="40" as="alternateBounds" />
          </mxGeometry>
        </mxCell>
        <mxCell id="aM8AJcJWPtkYupKNC__z-9" value="Đăng ký, mua khóa học, học bài và làm bài tập" style="shape=partialRectangle;html=1;whiteSpace=wrap;connectable=0;strokeColor=inherit;overflow=hidden;fillColor=none;top=0;left=0;bottom=0;right=0;pointerEvents=1;" vertex="1" parent="aM8AJcJWPtkYupKNC__z-7">
          <mxGeometry x="230" width="230" height="40" as="geometry">
            <mxRectangle width="230" height="40" as="alternateBounds" />
          </mxGeometry>
        </mxCell>
        <mxCell id="aM8AJcJWPtkYupKNC__z-10" value="trải nghiệm khóa học, thanh toán" style="shape=partialRectangle;html=1;whiteSpace=wrap;connectable=0;strokeColor=inherit;overflow=hidden;fillColor=none;top=0;left=0;bottom=0;right=0;pointerEvents=1;" vertex="1" parent="aM8AJcJWPtkYupKNC__z-7">
          <mxGeometry x="460" width="230" height="40" as="geometry">
            <mxRectangle width="230" height="40" as="alternateBounds" />
          </mxGeometry>
        </mxCell>
        <mxCell id="aM8AJcJWPtkYupKNC__z-11" value="" style="shape=tableRow;horizontal=0;startSize=0;swimlaneHead=0;swimlaneBody=0;strokeColor=inherit;top=0;left=0;bottom=0;right=0;collapsible=0;dropTarget=0;fillColor=none;points=[[0,0.5],[1,0.5]];portConstraint=eastwest;" vertex="1" parent="aM8AJcJWPtkYupKNC__z-2">
          <mxGeometry y="80" width="690" height="40" as="geometry" />
        </mxCell>
        <mxCell id="aM8AJcJWPtkYupKNC__z-12" value="Giảng viên" style="shape=partialRectangle;html=1;whiteSpace=wrap;connectable=0;strokeColor=inherit;overflow=hidden;fillColor=none;top=0;left=0;bottom=0;right=0;pointerEvents=1;" vertex="1" parent="aM8AJcJWPtkYupKNC__z-11">
          <mxGeometry width="230" height="40" as="geometry">
            <mxRectangle width="230" height="40" as="alternateBounds" />
          </mxGeometry>
        </mxCell>
        <mxCell id="aM8AJcJWPtkYupKNC__z-13" value="Tạo, quản lý nội dung khóa học, chấm điểm và hỗ trợ học viên" style="shape=partialRectangle;html=1;whiteSpace=wrap;connectable=0;strokeColor=inherit;overflow=hidden;fillColor=none;top=0;left=0;bottom=0;right=0;pointerEvents=1;" vertex="1" parent="aM8AJcJWPtkYupKNC__z-11">
          <mxGeometry x="230" width="230" height="40" as="geometry">
            <mxRectangle width="230" height="40" as="alternateBounds" />
          </mxGeometry>
        </mxCell>
        <mxCell id="aM8AJcJWPtkYupKNC__z-14" value="Quản lí nội dung, đánh giá và báo cáo" style="shape=partialRectangle;html=1;whiteSpace=wrap;connectable=0;strokeColor=inherit;overflow=hidden;fillColor=none;top=0;left=0;bottom=0;right=0;pointerEvents=1;" vertex="1" parent="aM8AJcJWPtkYupKNC__z-11">
          <mxGeometry x="460" width="230" height="40" as="geometry">
            <mxRectangle width="230" height="40" as="alternateBounds" />
          </mxGeometry>
        </mxCell>
        <mxCell id="aM8AJcJWPtkYupKNC__z-15" value="" style="shape=tableRow;horizontal=0;startSize=0;swimlaneHead=0;swimlaneBody=0;strokeColor=inherit;top=0;left=0;bottom=0;right=0;collapsible=0;dropTarget=0;fillColor=none;points=[[0,0.5],[1,0.5]];portConstraint=eastwest;" vertex="1" parent="aM8AJcJWPtkYupKNC__z-2">
          <mxGeometry y="120" width="690" height="40" as="geometry" />
        </mxCell>
        <mxCell id="aM8AJcJWPtkYupKNC__z-16" value="Admin" style="shape=partialRectangle;html=1;whiteSpace=wrap;connectable=0;strokeColor=inherit;overflow=hidden;fillColor=none;top=0;left=0;bottom=0;right=0;pointerEvents=1;" vertex="1" parent="aM8AJcJWPtkYupKNC__z-15">
          <mxGeometry width="230" height="40" as="geometry">
            <mxRectangle width="230" height="40" as="alternateBounds" />
          </mxGeometry>
        </mxCell>
        <mxCell id="aM8AJcJWPtkYupKNC__z-17" value="Quản lí học viên, quản lí khóa học và xem kết quả báo cáo" style="shape=partialRectangle;html=1;whiteSpace=wrap;connectable=0;strokeColor=inherit;overflow=hidden;fillColor=none;top=0;left=0;bottom=0;right=0;pointerEvents=1;" vertex="1" parent="aM8AJcJWPtkYupKNC__z-15">
          <mxGeometry x="230" width="230" height="40" as="geometry">
            <mxRectangle width="230" height="40" as="alternateBounds" />
          </mxGeometry>
        </mxCell>
        <mxCell id="aM8AJcJWPtkYupKNC__z-18" value="Vận hành hệ thống và bảo mật cho hệ thống" style="shape=partialRectangle;html=1;whiteSpace=wrap;connectable=0;strokeColor=inherit;overflow=hidden;fillColor=none;top=0;left=0;bottom=0;right=0;pointerEvents=1;" vertex="1" parent="aM8AJcJWPtkYupKNC__z-15">
          <mxGeometry x="460" width="230" height="40" as="geometry">
            <mxRectangle width="230" height="40" as="alternateBounds" />
          </mxGeometry>
        </mxCell>
        <mxCell id="aM8AJcJWPtkYupKNC__z-32" value="" style="shape=table;startSize=0;container=1;collapsible=0;childLayout=tableLayout;" vertex="1" parent="1">
          <mxGeometry x="180" y="839" width="690" height="150" as="geometry" />
        </mxCell>
        <mxCell id="aM8AJcJWPtkYupKNC__z-33" value="" style="shape=tableRow;horizontal=0;startSize=0;swimlaneHead=0;swimlaneBody=0;strokeColor=inherit;top=0;left=0;bottom=0;right=0;collapsible=0;dropTarget=0;fillColor=none;points=[[0,0.5],[1,0.5]];portConstraint=eastwest;" vertex="1" parent="aM8AJcJWPtkYupKNC__z-32">
          <mxGeometry width="690" height="50" as="geometry" />
        </mxCell>
        <mxCell id="aM8AJcJWPtkYupKNC__z-34" value="yêu cầu chức năng" style="shape=partialRectangle;html=1;whiteSpace=wrap;connectable=0;strokeColor=inherit;overflow=hidden;fillColor=none;top=0;left=0;bottom=0;right=0;pointerEvents=1;" vertex="1" parent="aM8AJcJWPtkYupKNC__z-33">
          <mxGeometry width="345" height="50" as="geometry">
            <mxRectangle width="345" height="50" as="alternateBounds" />
          </mxGeometry>
        </mxCell>
        <mxCell id="aM8AJcJWPtkYupKNC__z-35" value="yêu cầu phi chức năng" style="shape=partialRectangle;html=1;whiteSpace=wrap;connectable=0;strokeColor=inherit;overflow=hidden;fillColor=none;top=0;left=0;bottom=0;right=0;pointerEvents=1;" vertex="1" parent="aM8AJcJWPtkYupKNC__z-33">
          <mxGeometry x="345" width="345" height="50" as="geometry">
            <mxRectangle width="345" height="50" as="alternateBounds" />
          </mxGeometry>
        </mxCell>
        <mxCell id="aM8AJcJWPtkYupKNC__z-36" value="" style="shape=tableRow;horizontal=0;startSize=0;swimlaneHead=0;swimlaneBody=0;strokeColor=inherit;top=0;left=0;bottom=0;right=0;collapsible=0;dropTarget=0;fillColor=none;points=[[0,0.5],[1,0.5]];portConstraint=eastwest;" vertex="1" parent="aM8AJcJWPtkYupKNC__z-32">
          <mxGeometry y="50" width="690" height="100" as="geometry" />
        </mxCell>
        <mxCell id="aM8AJcJWPtkYupKNC__z-37" value="học viên đăng ký tài khoản, mua khóa học , học và làm bài tập, giảng viên và admin có thể thêm sửa xóa các khóa học và bài học,&amp;nbsp; xem được kết quả học tập của học viên" style="shape=partialRectangle;html=1;whiteSpace=wrap;connectable=0;strokeColor=inherit;overflow=hidden;fillColor=none;top=0;left=0;bottom=0;right=0;pointerEvents=1;" vertex="1" parent="aM8AJcJWPtkYupKNC__z-36">
          <mxGeometry width="345" height="100" as="geometry">
            <mxRectangle width="345" height="100" as="alternateBounds" />
          </mxGeometry>
        </mxCell>
        <mxCell id="aM8AJcJWPtkYupKNC__z-38" value="Bảo mật tài khoản và từng môn học của học viên, giới hạn thời gian nộp bài tập của học viên,&amp;nbsp;" style="shape=partialRectangle;html=1;whiteSpace=wrap;connectable=0;strokeColor=inherit;overflow=hidden;fillColor=none;top=0;left=0;bottom=0;right=0;pointerEvents=1;" vertex="1" parent="aM8AJcJWPtkYupKNC__z-36">
          <mxGeometry x="345" width="345" height="100" as="geometry">
            <mxRectangle width="345" height="100" as="alternateBounds" />
          </mxGeometry>
        </mxCell>
      </root>
    </mxGraphModel>
  </diagram>
</mxfile>
